# xmcd CD database file
#
# Track frame offsets:
#	182
#	48830
#	117177
#	191445
#	223800
#	251992
#
# Disc length: 3633 seconds
#
# Revision: 0
# Processed by: cddbd v1.5.2PL0 Copyright (c) Steve Scherf et al.
# Submitted via: CDex 1.50Beta7
#
DISCID=550e2f06
DTITLE=Various Artist - Jazz A go-go 007
DYEAR=1994
DGENRE=Jazz
TTITLE0=Gary Thomas Exile's Gate - Like Someone In Love
TTITLE1=Gary Thomas Exile's Gate - Night And Day
TTITLE2=Cezary Konrad Trio - Têsknota
TTITLE3=Cezary Konrad Trio - Fathers And Sons
TTITLE4=Grzegorz Kapo³ka Band - Angora Dora
TTITLE5=Grzegorz Kapo³ka Band - Genova L. Calda
EXTD=YEAR: 1994
EXTT0=
EXTT1=
EXTT2=
EXTT3=
EXTT4=
EXTT5=
PLAYORDER=
